# xmcd
#
# Track frame offsets:
#	150
#	12876
#	22829
#	32923
#	44310
#	55143
#	68204
#	79129
#	90428
#	102542
#
# Disc length: 1505 seconds
#
# Revision: 1
# Processed by: cddbd v1.5.2PL0 Copyright (c) Steve Scherf et al.
# Submitted via: audiograbber 1.83.01
#
DISCID=7405df0a
DTITLE=Dolly Parton and Porter Wagoner - Porter 'N' Dolly
DYEAR=1974
DGENRE=Country
TTITLE0=Please Don't Stop Loving Me
TTITLE1=The Fire That Keeps You Warm
TTITLE2=Too Far Gone
TTITLE3=We'd Have To Be Crazy
TTITLE4=The Power Of Love
TTITLE5=Sixteen Years
TTITLE6=Together You And I
TTITLE7=Without You
TTITLE8=Two
TTITLE9=Sounds Of Nature
EXTD=
EXTT0=
EXTT1=
EXTT2=
EXTT3=
EXTT4=
EXTT5=
EXTT6=
EXTT7=
EXTT8=
EXTT9=
PLAYORDER=
